<svg viewBox="0 0 128 128" fill="none" xmlns="http://www.w3.org/2000/svg">
    <g clip-path="url(#clip0_34_3)">
        <path d="M92.531 64L64 92.5311L75.3137 103.845L103.845 75.3137L92.531 64Z" fill="url(#paint0_linear_34_3)"/>
        <path d="M35.3137 64L63.8448 92.5311L52.5311 103.845L24 75.3137L35.3137 64Z" fill="url(#paint1_linear_34_3)"/>
        <path d="M16 32V56H32V32H16Z" fill="url(#paint2_linear_34_3)"/>
        <path d="M96 36V56H112V36H96Z" fill="url(#paint3_linear_34_3)"/>
        <path d="M24 36C30.6274 36 36 30.6274 36 24C36 17.3726 30.6274 12 24 12C17.3726 12 12 17.3726 12 24C12 30.6274 17.3726 36 24 36Z"
              stroke="url(#paint4_linear_34_3)" stroke-width="8"/>
        <path d="M24 76C30.6274 76 36 70.6274 36 64C36 57.3726 30.6274 52 24 52C17.3726 52 12 57.3726 12 64C12 70.6274 17.3726 76 24 76Z"
              stroke="url(#paint5_linear_34_3)" stroke-width="8"/>
        <path d="M104 36C110.627 36 116 30.6274 116 24C116 17.3726 110.627 12 104 12C97.3726 12 92 17.3726 92 24C92 30.6274 97.3726 36 104 36Z"
              stroke="url(#paint6_linear_34_3)" stroke-width="8"/>
        <path d="M104 76C110.627 76 116 70.6274 116 64C116 57.3726 110.627 52 104 52C97.3726 52 92 57.3726 92 64C92 70.6274 97.3726 76 104 76Z"
              stroke="url(#paint7_linear_34_3)" stroke-width="8"/>
        <path d="M64 116C70.6274 116 76 110.627 76 104C76 97.3726 70.6274 92 64 92C57.3726 92 52 97.3726 52 104C52 110.627 57.3726 116 64 116Z"
              stroke="url(#paint8_linear_34_3)" stroke-width="8"/>
        <path d="M64 38C70.6274 38 76 32.6274 76 26C76 19.3726 70.6274 14 64 14C57.3726 14 52 19.3726 52 26C52 32.6274 57.3726 38 64 38Z"
              stroke="url(#paint9_linear_34_3)" stroke-width="8"/>
        <path d="M64 52C70.6274 52 76 57.3726 76 64C76 70.6274 70.6274 76 64 76C57.3726 76 52 70.6274 52 64C52 57.3726 57.3726 52 64 52Z"
              stroke="url(#paint10_linear_34_3)" stroke-width="8"/>
        <path d="M22 116C15.3726 116 10 110.627 10 104C10 97.3726 15.3726 92 22 92C28.6274 92 34 97.3726 34 104C34 110.627 28.6274 116 22 116Z"
              stroke="url(#paint11_linear_34_3)" stroke-width="8"/>
        <path d="M104 92C97.3726 92 92 97.3726 92 104C92 110.627 97.3726 116 104 116C110.627 116 116 110.627 116 104C116 97.3726 110.627 92 104 92Z"
              stroke="url(#paint12_linear_34_3)" stroke-width="8"/>
    </g>
    <defs>
        <linearGradient id="paint0_linear_34_3" x1="88.985" y1="68.6975" x2="75.5571" y2="97.7338"
                        gradientUnits="userSpaceOnUse">
            <stop stop-color="#890F11"/>
            <stop offset="1" stop-color="#ED2F32"/>
        </linearGradient>
        <linearGradient id="paint1_linear_34_3" x1="38.8598" y1="68.6975" x2="52.2877" y2="97.7338"
                        gradientUnits="userSpaceOnUse">
            <stop stop-color="#890F11"/>
            <stop offset="1" stop-color="#ED2F32"/>
        </linearGradient>
        <linearGradient id="paint2_linear_34_3" x1="24" y1="39.6098" x2="24" y2="48.3902"
                        gradientUnits="userSpaceOnUse">
            <stop stop-color="#690506"/>
            <stop offset="0.71" stop-color="#F03033"/>
        </linearGradient>
        <linearGradient id="paint3_linear_34_3" x1="104" y1="34" x2="104" y2="55" gradientUnits="userSpaceOnUse">
            <stop offset="0.227157" stop-color="#690506"/>
            <stop offset="0.796961" stop-color="#FD3438"/>
        </linearGradient>
        <linearGradient id="paint4_linear_34_3" x1="24" y1="40" x2="24" y2="8" gradientUnits="userSpaceOnUse">
            <stop offset="0.095" stop-color="#690506"/>
            <stop offset="0.96" stop-color="#F03033"/>
        </linearGradient>
        <linearGradient id="paint5_linear_34_3" x1="24" y1="48" x2="24" y2="80" gradientUnits="userSpaceOnUse">
            <stop stop-color="#FF3438"/>
            <stop offset="1" stop-color="#620204"/>
        </linearGradient>
        <linearGradient id="paint6_linear_34_3" x1="104" y1="8" x2="104" y2="40" gradientUnits="userSpaceOnUse">
            <stop stop-color="#FF3438"/>
            <stop offset="1" stop-color="#620204"/>
        </linearGradient>
        <linearGradient id="paint7_linear_34_3" x1="104" y1="48" x2="104" y2="80" gradientUnits="userSpaceOnUse">
            <stop stop-color="#FF3438"/>
            <stop offset="1" stop-color="#620204"/>
        </linearGradient>
        <linearGradient id="paint8_linear_34_3" x1="64" y1="88" x2="64" y2="120" gradientUnits="userSpaceOnUse">
            <stop stop-color="#D5282A"/>
            <stop offset="1" stop-color="#6F1516"/>
        </linearGradient>
        <linearGradient id="paint9_linear_34_3" x1="64" y1="10" x2="64" y2="42" gradientUnits="userSpaceOnUse">
            <stop stop-color="#D5282A"/>
            <stop offset="1" stop-color="#6F1516"/>
        </linearGradient>
        <linearGradient id="paint10_linear_34_3" x1="64" y1="80" x2="64" y2="48" gradientUnits="userSpaceOnUse">
            <stop stop-color="#D5282A"/>
            <stop offset="1" stop-color="#6F1516"/>
        </linearGradient>
        <linearGradient id="paint11_linear_34_3" x1="22" y1="88" x2="22" y2="120" gradientUnits="userSpaceOnUse">
            <stop stop-color="#D5282A"/>
            <stop offset="1" stop-color="#6F1516"/>
        </linearGradient>
        <linearGradient id="paint12_linear_34_3" x1="104" y1="120" x2="104" y2="88" gradientUnits="userSpaceOnUse">
            <stop stop-color="#D5282A"/>
            <stop offset="1" stop-color="#6F1516"/>
        </linearGradient>
        <clipPath id="clip0_34_3">
            <rect width="128" height="128" fill="white"/>
        </clipPath>
    </defs>
</svg>
